<svg width="29" height="33" viewBox="0 0 29 33" fill="none" xmlns="http://www.w3.org/2000/svg">
<g filter="url(#filter0_d_16_104)">
<path d="M9.36434 21.5204C8.95807 21.5204 8.62651 21.1829 8.62651 20.7676C8.62651 20.3522 8.95573 20.0147 9.36434 20.0147H14.1509C14.5572 20.0147 14.8888 20.3522 14.8888 20.7676C14.8888 21.1829 14.5595 21.5204 14.1509 21.5204H9.36434ZM9.36434 10.9758C8.95807 10.9758 8.62884 10.6431 8.62884 10.2324C8.62884 9.82178 8.95807 9.48901 9.36434 9.48901H19.0799C19.4862 9.48901 19.8154 9.82178 19.8154 10.2324C19.8154 10.6431 19.4862 10.9758 19.0799 10.9758H9.36434ZM15.274 28.5132C15.6803 28.5132 16.0095 28.8459 16.0095 29.2566C16.0095 29.6672 15.6803 30 15.274 30H3.7115C3.23984 30 2.81255 29.8065 2.50201 29.4926C2.19146 29.1787 2 28.7468 2 28.2701V2.7299C2 2.25317 2.19146 1.82129 2.50201 1.50741C2.81255 1.19352 3.23984 1 3.7115 1H24.7305C25.2021 1 25.6294 1.19352 25.9399 1.50741C26.2505 1.82129 26.442 2.25317 26.442 2.7299V18.1338C26.442 18.5444 26.1127 18.8772 25.7065 18.8772C25.3002 18.8772 24.971 18.5444 24.971 18.1338V2.7299C24.971 2.66382 24.9429 2.60246 24.9009 2.55762C24.8565 2.51278 24.7958 2.48682 24.7305 2.48682H3.7115C3.64612 2.48682 3.58541 2.51514 3.54105 2.55762C3.49902 2.60482 3.471 2.66382 3.471 2.7299V28.2677C3.471 28.3338 3.49902 28.3952 3.54105 28.44C3.58541 28.4849 3.64612 28.5108 3.7115 28.5108H15.274V28.5132ZM21.4616 20.7534C21.4616 20.3451 21.7908 20.0124 22.1947 20.0124C22.5987 20.0124 22.9279 20.3451 22.9279 20.7534L22.9186 24.1424L26.2668 24.1519C26.6708 24.1519 27 24.4846 27 24.8929C27 25.3012 26.6708 25.634 26.2668 25.634L22.9162 25.6245L22.9069 29.0088C22.9069 29.4171 22.5777 29.7498 22.1737 29.7498C21.7698 29.7498 21.4406 29.4171 21.4406 29.0088L21.4499 25.6222L18.1016 25.6127C17.6977 25.6127 17.3685 25.2799 17.3685 24.8717C17.3685 24.4634 17.6977 24.1306 18.1016 24.1306L21.4546 24.1401L21.4616 20.7534ZM9.36434 16.2434C8.95807 16.2434 8.62884 15.9106 8.62884 15.5C8.62884 15.0894 8.95807 14.7566 9.36434 14.7566H19.0799C19.4862 14.7566 19.8154 15.0894 19.8154 15.5C19.8154 15.9106 19.4862 16.2434 19.0799 16.2434H9.36434Z"/>
<path d="M23.4148 26.1259L26.2654 26.134H26.2668C26.9519 26.134 27.5 25.5723 27.5 24.8929C27.5 24.2138 26.9524 23.6523 26.2677 23.6519L26.2682 23.6519L23.4148 26.1259ZM23.4148 26.1259L23.4069 29.0088C23.4069 29.009 23.4069 29.0093 23.4069 29.0096L23.4069 29.0102L23.4148 26.1259ZM15.274 28.0108H3.971V2.98682H24.471V18.1338C24.471 18.8155 25.019 19.3772 25.7065 19.3772C26.3939 19.3772 26.942 18.8155 26.942 18.1338V2.7299C26.942 2.11656 26.695 1.55968 26.2954 1.15575C25.8957 0.751732 25.3422 0.5 24.7305 0.5H3.7115C3.09971 0.5 2.54629 0.751733 2.14657 1.15575C1.74694 1.55968 1.5 2.11656 1.5 2.7299V28.2701C1.5 28.8834 1.74694 29.4403 2.14657 29.8443C2.54629 30.2483 3.09971 30.5 3.7115 30.5H15.274C15.9615 30.5 16.5095 29.9383 16.5095 29.2566C16.5095 28.7518 16.2091 28.3129 15.774 28.119V28.0108H15.274ZM20.9616 20.7534L20.9556 23.6386L22.9279 20.7534C22.9279 20.3451 22.5987 20.0124 22.1947 20.0124C21.7908 20.0124 21.4616 20.3451 21.4616 20.7534L20.9616 20.7524L20.9616 20.7533C20.9616 20.7533 20.9616 20.7534 20.9616 20.7534ZM18.1016 26.1127L20.9485 26.1207L18.1016 25.6127L18.1002 26.1127L18.1008 26.1127C18.1011 26.1127 18.1013 26.1127 18.1016 26.1127ZM26.2668 23.6519L23.4199 23.6438L26.2668 23.6519ZM8.12651 20.7676C8.12651 21.4499 8.67283 22.0204 9.36434 22.0204H14.1509C14.8458 22.0204 15.3888 21.4489 15.3888 20.7676C15.3888 20.0853 14.8424 19.5147 14.1509 19.5147H9.36434C8.66947 19.5147 8.12651 20.0863 8.12651 20.7676ZM8.12884 10.2324C8.12884 10.9142 8.6769 11.4758 9.36434 11.4758H19.0799C19.7674 11.4758 20.3154 10.9142 20.3154 10.2324C20.3154 9.55069 19.7674 8.98901 19.0799 8.98901H9.36434C8.6769 8.98901 8.12884 9.55069 8.12884 10.2324ZM8.12884 15.5C8.12884 16.1817 8.6769 16.7434 9.36434 16.7434H19.0799C19.7674 16.7434 20.3154 16.1817 20.3154 15.5C20.3154 14.8183 19.7674 14.2566 19.0799 14.2566H9.36434C8.6769 14.2566 8.12884 14.8183 8.12884 15.5Z"/>
</g>
<defs>
<filter id="filter0_d_16_104" x="0" y="0" width="29" height="33" filterUnits="userSpaceOnUse" color-interpolation-filters="sRGB">
<feFlood flood-opacity="0" result="BackgroundImageFix"/>
<feColorMatrix in="SourceAlpha" type="matrix" values="0 0 0 0 0 0 0 0 0 0 0 0 0 0 0 0 0 0 127 0" result="hardAlpha"/>
<feOffset dy="1"/>
<feGaussianBlur stdDeviation="0.5"/>
<feComposite in2="hardAlpha" operator="out"/>
<feColorMatrix type="matrix" values="0 0 0 0 0 0 0 0 0 0 0 0 0 0 0 0 0 0 0.25 0"/>
<feBlend mode="normal" in2="BackgroundImageFix" result="effect1_dropShadow_16_104"/>
<feBlend mode="normal" in="SourceGraphic" in2="effect1_dropShadow_16_104" result="shape"/>
</filter>
</defs>
</svg>
