<svg width="30" height="30" viewBox="0 0 30 30" fill="none" xmlns="http://www.w3.org/2000/svg">
<g filter="url(#filter0_d_5_111)">
<path d="M27.3137 11.1169H26.2042C25.2991 11.1169 24.54 10.3369 24.54 9.41109C24.54 8.94455 24.737 8.52174 25.0874 8.20828L25.8027 7.50846C26.5107 6.80864 26.5107 5.66415 25.8027 4.96433L24.175 3.35329C23.8538 3.03254 23.3794 2.84301 22.8976 2.84301C22.4159 2.84301 21.9487 3.03254 21.6203 3.35329L20.9341 4.03853C20.6057 4.40302 20.1677 4.59984 19.6933 4.59984C18.759 4.59984 17.978 3.84171 17.978 2.94507V1.82973C17.978 0.845613 17.1824 0 16.1897 0H13.9707C12.978 0 12.1897 0.838323 12.1897 1.82973V2.93778C12.1897 3.83442 11.4087 4.59255 10.4744 4.59255C10.0072 4.59255 9.57657 4.39573 9.26271 4.05311L8.55469 3.35329C8.23352 3.02525 7.75907 2.84301 7.27732 2.84301C6.79557 2.84301 6.32843 3.03254 5.99996 3.35329L4.35764 4.95704C3.65691 5.65686 3.65691 6.80135 4.35764 7.49388L5.04376 8.17912C5.40872 8.50716 5.6131 8.94455 5.6131 9.41109C5.6131 10.3442 4.85398 11.1169 3.94888 11.1169H2.8394C1.83941 11.1169 1 11.8969 1 12.8883V13.9964V15.1044C1 16.0885 1.83941 16.8758 2.8394 16.8758H3.94888C4.85398 16.8758 5.6131 17.6558 5.6131 18.5816C5.6131 19.0482 5.40872 19.4855 5.04376 19.8136L4.35764 20.4915C3.65691 21.1914 3.65691 22.3358 4.35764 23.0284L5.98536 24.6467C6.30653 24.9747 6.78098 25.157 7.26272 25.157C7.74447 25.157 8.21162 24.9675 8.54009 24.6467L9.24811 23.9469C9.55468 23.6043 9.99263 23.4074 10.4598 23.4074C11.3941 23.4074 12.1751 24.1656 12.1751 25.0622V26.1703C12.1751 27.1544 12.9634 28 13.9634 28H16.1824C17.1751 28 17.9634 27.1617 17.9634 26.1703V25.0622C17.9634 24.1656 18.7444 23.4074 19.6787 23.4074C20.1458 23.4074 20.5838 23.6116 20.9196 23.9688L21.6057 24.654C21.9341 24.9747 22.4013 25.1643 22.883 25.1643C23.3648 25.1643 23.8319 24.9747 24.1604 24.654L25.7881 23.0357C26.4888 22.3358 26.4888 21.1914 25.7881 20.4915L25.0728 19.7917C24.7224 19.4783 24.5254 19.0482 24.5254 18.5889C24.5254 17.6558 25.2845 16.8831 26.1896 16.8831H27.2991C28.2918 16.8831 28.9998 16.1031 28.9998 15.1117V13.9964V12.8883C29.0144 11.8969 28.3064 11.1169 27.3137 11.1169ZM20.9123 13.9964C20.9123 17.2111 18.3064 19.8282 15.0729 19.8282C11.8393 19.8282 9.23351 17.2111 9.23351 13.9964C9.23351 10.7816 11.8393 8.16454 15.0729 8.16454C18.3064 8.16454 20.9123 10.7816 20.9123 13.9964Z" fill="#F8F9D7"/>
</g>
<defs>
<filter id="filter0_d_5_111" x="0" y="0" width="30" height="30" filterUnits="userSpaceOnUse" color-interpolation-filters="sRGB">
<feFlood flood-opacity="0" result="BackgroundImageFix"/>
<feColorMatrix in="SourceAlpha" type="matrix" values="0 0 0 0 0 0 0 0 0 0 0 0 0 0 0 0 0 0 127 0" result="hardAlpha"/>
<feOffset dy="1"/>
<feGaussianBlur stdDeviation="0.5"/>
<feComposite in2="hardAlpha" operator="out"/>
<feColorMatrix type="matrix" values="0 0 0 0 0 0 0 0 0 0 0 0 0 0 0 0 0 0 0.25 0"/>
<feBlend mode="normal" in2="BackgroundImageFix" result="effect1_dropShadow_5_111"/>
<feBlend mode="normal" in="SourceGraphic" in2="effect1_dropShadow_5_111" result="shape"/>
</filter>
</defs>
</svg>
